<svg preserveAspectRatio="none" overflow="visible" style="display: block;" width="20" height="20" viewBox="0 0 20 20" fill="none" xmlns="http://www.w3.org/2000/svg">
<g id="Icon">
<path id="Icon_2" d="M9.70414 17.4257L9.6987 17.4227L9.67982 17.4125C9.66375 17.4038 9.64076 17.3912 9.61131 17.3747C9.55243 17.3419 9.4677 17.2938 9.3608 17.2309C9.14708 17.1052 8.84431 16.92 8.48212 16.6793C7.75895 16.1985 6.79268 15.4919 5.82383 14.5887C3.90651 12.8014 1.875 10.146 1.875 6.87511C1.875 4.43507 3.928 2.50011 6.40625 2.50011C7.86365 2.50011 9.1686 3.16602 10 4.20978C10.8314 3.16602 12.1363 2.50011 13.5938 2.50011C16.072 2.50011 18.125 4.43507 18.125 6.87511C18.125 10.146 16.0935 12.8014 14.1762 14.5887C13.2073 15.4919 12.241 16.1985 11.5179 16.6793C11.1557 16.92 10.8529 17.1052 10.6392 17.2309C10.5323 17.2938 10.4476 17.3419 10.3887 17.3747C10.3592 17.3912 10.3363 17.4038 10.3202 17.4125L10.3013 17.4227L10.2959 17.4257L10.2936 17.4269C10.1103 17.5242 9.88974 17.5242 9.70644 17.4269L9.70414 17.4257Z" fill="#FF5353"/>
</g>
</svg>
