<!-- Source: existing Figma stars-4-of-5.svg; unchanged first-star geometry. -->
<svg xmlns="http://www.w3.org/2000/svg" width="24" height="24" viewBox="0 0 24 24"><path d="M10.8471 2.33613C11.3187 1.38052 12.6813 1.38052 13.1529 2.33612L15.2276 6.53976C15.4148 6.91923 15.7769 7.18225 16.1956 7.2431L20.8346 7.91718C21.8892 8.07042 22.3103 9.36638 21.5472 10.1102L18.1904 13.3823C17.8873 13.6777 17.7491 14.1032 17.8206 14.5203L18.613 19.1406C18.7932 20.1909 17.6908 20.9918 16.7475 20.4959L12.5983 18.3145C12.2237 18.1176 11.7763 18.1176 11.4017 18.3145L7.25247 20.4959C6.30924 20.9918 5.20682 20.1909 5.38696 19.1406L6.1794 14.5203C6.25093 14.1032 6.11265 13.6777 5.80963 13.3823L2.45283 10.1102C1.68974 9.36638 2.11082 8.07042 3.16539 7.91718L7.80437 7.2431C8.22314 7.18225 8.58516 6.91923 8.77244 6.53976L10.8471 2.33613Z" fill="#F2F2F5"/></svg>
